<?xml version="1.0" encoding="UTF-8" standalone="no"?>
<!-- Created with Inkscape (http://www.inkscape.org/) -->

<svg
   width="210mm"
   height="297mm"
   viewBox="0 0 210 297"
   version="1.1"
   id="svg1"
   inkscape:version="1.4.2 (f4327f4, 2025-05-13)"
   sodipodi:docname="logo.svg"
   xml:space="preserve"
   xmlns:inkscape="http://www.inkscape.org/namespaces/inkscape"
   xmlns:sodipodi="http://sodipodi.sourceforge.net/DTD/sodipodi-0.dtd"
   xmlns="http://www.w3.org/2000/svg"
   xmlns:svg="http://www.w3.org/2000/svg"><sodipodi:namedview
     id="namedview1"
     pagecolor="#505050"
     bordercolor="#eeeeee"
     borderopacity="1"
     inkscape:showpageshadow="0"
     inkscape:pageopacity="0"
     inkscape:pagecheckerboard="0"
     inkscape:deskcolor="#505050"
     inkscape:document-units="mm"
     inkscape:zoom="1.0267829"
     inkscape:cx="454.33168"
     inkscape:cy="392.97499"
     inkscape:window-width="1920"
     inkscape:window-height="1017"
     inkscape:window-x="-8"
     inkscape:window-y="-8"
     inkscape:window-maximized="1"
     inkscape:current-layer="layer1" /><defs
     id="defs1"><inkscape:path-effect
       effect="fillet_chamfer"
       id="path-effect2"
       is_visible="true"
       lpeversion="1"
       nodesatellites_param="F,0,0,1,0,10.697488,0,1 @ F,0,0,1,0,0,0,1 @ F,0,0,1,0,14.507281,0,1 @ F,0,0,1,0,0,0,1 @ F,0,0,1,0,14.699066,0,1 @ F,0,0,1,0,0,0,1"
       radius="0"
       unit="px"
       method="auto"
       mode="F"
       chamfer_steps="1"
       flexible="false"
       use_knot_distance="true"
       apply_no_radius="true"
       apply_with_radius="true"
       only_selected="false"
       hide_knots="false" /></defs><g
     inkscape:label="Layer 1"
     inkscape:groupmode="layer"
     id="layer1"><path
       style="fill:#000000;stroke-width:2.23308"
       d="m 32.76358,132.14068 c -0.398113,-0.47969 -0.506529,-1.1986 -0.245036,-1.62481 0.48393,-0.78874 5.975359,-7.09775 51.465271,-59.127892 14.7117,-16.82683 26.745645,-30.785312 26.742125,-31.018849 -0.004,-0.233535 -2.2635,-3.007657 -5.02211,-6.164713 -2.75863,-3.157056 -5.01569,-6.005867 -5.01569,-6.330691 0,-0.324823 0.51276,-0.865 1.13943,-1.200393 0.98802,-0.528766 1.7472,0.07697 5.71275,4.558185 2.51534,2.842394 4.9027,5.366884 5.30525,5.609976 0.47697,0.288005 2.34619,-1.358705 5.36542,-4.726682 5.30861,-5.921769 5.44909,-6.044944 6.45442,-5.659155 1.78852,0.686317 1.06766,2.199961 -3.64905,7.662119 -2.75146,3.186341 -4.92807,6.101479 -4.83689,6.47808 0.15163,0.626582 14.51494,17.181163 60.87412,70.161545 9.34258,10.67692 16.98651,19.90094 16.98651,20.49782 0,1.5224 -1.04146,1.99363 -2.3429,1.06009 -0.60677,-0.43525 -4.7301,-4.97889 -9.16299,-10.097 -4.43286,-5.1181 -8.30097,-9.30566 -8.59576,-9.30566 -0.98972,0 -1.56541,2.02322 -2.94201,10.33962 -0.75309,4.54943 -1.62521,8.60403 -1.93809,9.01023 -0.44784,0.58144 -12.21862,0.73854 -55.33125,0.73854 -42.909885,0 -54.967815,-0.15989 -55.71143,-0.73854 -0.843545,-0.65644 -1.813103,-4.85315 -3.67176,-15.89318 -0.699155,-4.15287 -1.553798,-3.94797 -6.466391,1.55047 -2.47521,2.77038 -6.519448,7.29701 -8.987178,10.05915 -2.467752,2.76216 -4.695135,5.0221 -4.949751,5.0221 -0.254637,0 -0.784279,-0.38717 -1.17701,-0.86036 z m 65.801235,-4.15134 c 0.20254,-0.80667 0.1974,-2.53485 -0.0112,-3.84042 l -0.37958,-2.37374 h -19.35882 c -15.893414,0 -19.414732,0.1456 -19.671022,0.81351 -0.302225,0.78761 0.511219,5.36912 1.131478,6.37274 0.168151,0.27203 8.769204,0.4946 19.113494,0.4946 h 18.80781 z M 124.32156,116.6519 c 0,-11.08525 -0.1313,-12.9492 -0.97784,-13.88463 -0.86599,-0.9569 -2.00986,-1.08048 -10.00131,-1.08048 h -9.02349 l -1.22455,1.55677 c -1.14704,1.45824 -1.22455,2.31211 -1.22455,13.49074 0,6.56368 0.1773,12.11121 0.39389,12.32784 0.21661,0.21661 5.26828,0.39389 11.22586,0.39389 h 10.83199 z m 42.55244,10.39504 c 0.3568,-1.32502 0.56644,-2.98674 0.46591,-3.69273 l -0.18289,-1.28359 H 147.65946 128.1619 l -0.18312,2.87908 c -0.10071,1.5835 -0.0427,3.24524 0.12908,3.69273 0.25613,0.66747 3.70755,0.8136 19.21472,0.8136 h 18.90249 z M 98.649555,116.21361 c 0.20813,-1.1091 0.2012,-2.57483 -0.0156,-3.25719 -0.3913,-1.23288 -0.52196,-1.23967 -20.88305,-1.08532 l -20.489293,0.1552 0.157655,1.77251 c 0.08664,0.97487 0.291171,2.37072 0.454387,3.10187 l 0.296732,1.32938 h 20.050379 20.05036 z m 69.793225,1.07235 c 0.19919,-0.51933 0.39034,-1.91518 0.42457,-3.10188 l 0.0623,-2.15767 h -20.3838 -20.38383 l -0.18713,2.27776 c -0.34289,4.17481 -1.62778,3.926 20.27547,3.926 17.62276,0 19.8704,-0.10518 20.19241,-0.94421 z M 98.556995,107.2514 c 0.19718,-0.51401 0.35863,-1.97632 0.35863,-3.2496 v -2.31501 H 80.353975 61.792318 l -1.880943,2.37488 c -3.329452,4.20379 -3.686722,4.12432 18.5387,4.12432 17.46282,0 19.7898,-0.10808 20.10692,-0.93459 z m 69.716295,0.007 c 0.21638,-0.56401 -0.39675,-1.83586 -1.56157,-3.23895 l -1.91797,-2.31025 -18.46358,-0.0112 -18.4636,-0.0112 v 2.8557 c 0,1.57064 0.17731,3.03295 0.39389,3.2496 0.21661,0.21661 9.22798,0.39389 20.02517,0.39389 17.30363,0 19.67355,-0.11009 19.98766,-0.92869 z m -8.6478,-10.297172 c 0.0909,-0.48746 -0.87174,-2.01625 -2.13933,-3.39732 l -2.30467,-2.51105 h -41.9715 -41.971525 l -2.11397,2.4697 c -2.08451,2.4353 -2.49633,3.45017 -1.71648,4.23003 0.21862,0.21862 21.01979,0.3294 46.224805,0.24619 40.18788,-0.13264 45.84766,-0.26037 45.99267,-1.03755 z m -8.85346,-10.06379 c 0.0958,-0.4982 -0.78528,-2.02699 -1.95821,-3.39729 l -2.13261,-2.4914 H 113.41382 80.146405 l -2.13667,2.36505 c -2.07297,2.29453 -2.56134,3.51252 -1.73839,4.3355 0.21907,0.21906 17.03211,0.32982 37.362305,0.24617 32.66287,-0.13443 36.98428,-0.25752 37.13838,-1.05794 z m -9.66,-9.20158 c 1.41899,-0.54451 1.14025,-1.55172 -1.17938,-4.26169 l -2.11396,-2.4697 h -24.301 -24.301015 l -2.24053,2.18784 c -2.26751,2.21414 -2.85102,3.96655 -1.50201,4.51088 1.06471,0.42963 54.521665,0.461 55.637895,0.0326 z m -8.12561,-11.20433 c 0.22777,-0.59357 -0.4608,-1.7645 -1.91096,-3.24959 l -2.26704,-2.32166 H 113.3084 97.808375 l -2.1,2.21563 c -1.155,1.2186 -2.10231,2.68091 -2.10513,3.24959 -0.004,0.96396 1.31616,1.03396 19.510995,1.03396 17.19222,0 19.5585,-0.11049 19.87218,-0.92793 z m -8.88794,-9.97796 c 0.38346,-0.99932 -9.50081,-12.727515 -10.7265,-12.727515 -1.09012,0 -10.89287,11.288225 -10.90303,12.555245 -0.007,0.94681 0.88975,1.03397 10.64529,1.03397 8.78986,0 10.71142,-0.15074 10.98424,-0.8617 z"
       id="path6"
       inkscape:export-filename="..\public\logo.png"
       inkscape:export-xdpi="96"
       inkscape:export-ydpi="96" /><text
       xml:space="preserve"
       style="font-size:23.5295px;text-align:start;writing-mode:lr-tb;direction:ltr;text-anchor:start;fill:#000000;stroke:none;stroke-width:9.26359;stroke-dasharray:none;stroke-opacity:1"
       x="31.187069"
       y="152.40271"
       id="text6-8-8"><tspan
         sodipodi:role="line"
         id="tspan6-6-2"
         style="font-style:normal;font-variant:normal;font-weight:normal;font-stretch:normal;font-size:23.5295px;font-family:'M Ponderosa';-inkscape-font-specification:'M Ponderosa';stroke-width:9.26361"
         x="31.187069"
         y="152.40271">Shack N The Back</tspan></text></g></svg>
